PathFileType	4	(X/Y/Z)	./resultDataOpenSim/trcMotMarkerGrf/sub06/qtm-04-03.trc
DataRate	CameraRate	NumFrames	NumMarkers	Units	OrigDataRate	OrigDataStartFrame	OrigNumFrames
250.000000	250.000000	12	24	m	250.000000	1	510
Frame#	Time	L.Toe.Tip			R.Toe.Tip			L.Ankle.Lat			R.Ankle.Lat			L.Ankle.Med			R.Ankle.Med			L.Heel			R.Heel			L.Knee.Lat			R.Knee.Lat			L.Knee.Med			R.Knee.Med			L.Thigh.Upper			R.Thigh.Upper			L.ASIS			R.ASIS			V.Sacral			L.Acromium			R.Acromium			C7			L.Elbow			R.Elbow			L.Wrist.Lat			R.Wrist.Lat
		X1	Y1	Z1	X2	Y2	Z2	X3	Y3	Z3	X4	Y4	Z4	X5	Y5	Z5	X6	Y6	Z6	X7	Y7	Z7	X8	Y8	Z8	X9	Y9	Z9	X10	Y10	Z10	X11	Y11	Z11	X12	Y12	Z12	X13	Y13	Z13	X14	Y14	Z14	X15	Y15	Z15	X16	Y16	Z16	X17	Y17	Z17	X18	Y18	Z18	X19	Y19	Z19	X20	Y20	Z20	X21	Y21	Z21	X22	Y22	Z22	X23	Y23	Z23	X24	Y24	Z24

1	0	-1.609825	0.032339819	-0.058429614	-1.0493648	0.083242663	0.16641995	-1.7274467	0.077163267	-0.070666739	-1.1790122	0.077275127	0.15961523	-1.7173873	0.089031221	0.013396671	-1.1551673	0.10669304	0.07942485	NaN	NaN	NaN	-1.2131988	0.042809236	0.082105229	-1.5688952	0.41347054	-0.089481173	-1.251963	0.46125967	0.1701172	-1.5774602	0.41561389	0.030027432	-1.2567891	0.44174708	0.044172951	-1.4741624	0.78873041	-0.15253054	-1.4294265	0.78682223	0.19644752	-1.3879524	0.82746691	-0.11811841	-1.3544868	0.83503697	0.12624626	-1.5522747	0.91071863	0.034613494	-1.4089075	1.3194214	-0.16645434	-1.4060663	1.2974758	0.19666715	-1.4828699	1.3494743	0.01584374	-1.3897116	0.99772389	-0.24355525	NaN	NaN	NaN	-1.1654166	0.8896965	-0.20857067	-1.4717475	0.78580816	0.2830874
2	0.004	-1.6092504	0.032463742	-0.059024987	-1.0330888	0.086784732	0.1662528	-1.7270672	0.077709407	-0.070842326	-1.1629872	0.077598462	0.160327	-1.7168413	0.089622207	0.013160971	-1.1400039	0.10777658	0.080035251	NaN	NaN	NaN	-1.1968422	0.042354242	0.083168004	-1.5659256	0.41286762	-0.089645548	-1.2453849	0.45946117	0.16981505	-1.5744088	0.4146764	0.029925584	-1.2507056	0.43953545	0.043606168	-1.4693583	0.78732357	-0.15234916	-1.4235944	0.78462756	0.19645864	-1.3824603	0.82586161	-0.11801314	-1.3481784	0.83319339	0.1263328	-1.5462981	0.90932634	0.035262976	-1.4030281	1.3176329	-0.1661535	-1.4004343	1.295759	0.19722483	-1.4771639	1.3479591	0.016368614	-1.381689	0.99596542	-0.24320823	NaN	NaN	NaN	-1.1566781	0.89024618	-0.20680649	-1.4694183	0.78411818	0.28352497
3	0.008	-1.6090948	0.032500869	-0.059241021	-1.0172689	0.090484164	0.1659766	-1.7266308	0.078275	-0.071044236	-1.1472892	0.078028736	0.16104373	-1.7162684	0.090263983	0.012916611	-1.1252946	0.10888002	0.080607255	NaN	NaN	NaN	-1.1808053	0.041954277	0.084233076	-1.5628732	0.41225521	-0.089805506	-1.2389537	0.45764707	0.16949356	-1.5710146	0.41379581	0.029770973	-1.2445798	0.43732522	0.043013652	-1.4644637	0.78592502	-0.15206317	-1.4172118	0.78262932	0.19663191	-1.3769749	0.82426534	-0.11792632	-1.341811	0.83138357	0.12641278	-1.5397462	0.90797967	0.036113228	-1.3971217	1.3158478	-0.16583466	-1.3947599	1.2940244	0.1977829	-1.4714232	1.3464448	0.01692073	-1.373688	0.99422377	-0.24288936	NaN	NaN	NaN	-1.147966	0.89076784	-0.20503088	-1.4671565	0.78241157	0.28397699
4	0.012	-1.6093945	0.032445924	-0.059052693	-1.0020808	0.094443588	0.16545601	-1.7261522	0.078889558	-0.071271739	-1.1321351	0.078618419	0.16173614	-1.7156678	0.090953367	0.012652953	-1.1112624	0.10999732	0.081105554	NaN	NaN	NaN	-1.1652651	0.041626585	0.085296164	-1.5596856	0.41163371	-0.089955604	-1.2326914	0.45583179	0.16914195	-1.5673169	0.41297161	0.029586392	-1.2383775	0.43512731	0.042374813	-1.4594429	0.78452787	-0.15165587	-1.4104099	0.78078566	0.19692878	-1.3714979	0.82265635	-0.11789287	-1.3353686	0.82961547	0.12648034	-1.5326407	0.90662447	0.037144998	-1.3911504	1.3140565	-0.16546624	-1.3890289	1.2922688	0.19834781	-1.4655881	1.3449282	0.017496735	-1.3657116	0.99250367	-0.242597	NaN	NaN	NaN	-1.1393012	0.89124522	-0.2032424	-1.4648938	0.78070092	0.28445608
5	0.016	-1.6098307	0.032357738	-0.058747377	-0.98752383	0.09865182	0.16459441	-1.7256896	0.079576965	-0.071506344	-1.1176442	0.079347222	0.16235911	-1.715059	0.091656014	0.012369139	-1.0979451	0.11109382	0.081502595	NaN	NaN	NaN	-1.1503007	0.04135205	0.086338874	-1.5563676	0.4110155	-0.090085734	-1.2264578	0.454082	0.1687707	-1.5635247	0.41218903	0.029426663	-1.2320842	0.43297095	0.041684986	-1.4543319	0.78311777	-0.15119224	-1.4035669	0.77897218	0.1972388	-1.3660196	0.82101134	-0.11792336	-1.3288707	0.82788911	0.12653961	-1.5255837	0.90518705	0.03814958	-1.3851058	1.3122525	-0.16502806	-1.3832635	1.2905096	0.19892518	-1.4596495	1.3434026	0.018048867	-1.3577686	0.99080337	-0.24230893	NaN	NaN	NaN	-1.1307141	0.89166899	-0.20144886	-1.4624762	0.77901308	0.28496844
6	0.02	-1.6101232	0.032284212	-0.058565174	-0.97366053	0.10291916	0.16350854	-1.7252754	0.080340769	-0.071734911	-1.1038595	0.080148523	0.16287919	-1.7144671	0.092368784	0.012082521	-1.0853007	0.11212343	0.081780642	NaN	NaN	NaN	-1.1359799	0.041097072	0.087310465	-1.5529414	0.41041074	-0.090189565	-1.2200021	0.45248557	0.16842023	-1.5597181	0.41145471	0.029312494	-1.2256867	0.43089546	0.040956262	-1.4491751	0.7816847	-0.15073528	-1.3968142	0.77714654	0.19752561	-1.3604826	0.81935149	-0.11791676	-1.3223225	0.82620447	0.12660335	-1.519029	0.90366516	0.03897446	-1.3790046	1.3104459	-0.16452663	-1.3774916	1.2887728	0.19951829	-1.4536485	1.3418633	0.018539018	-1.3498555	0.98911652	-0.24197734	NaN	NaN	NaN	-1.1222182	0.89202811	-0.19965452	-1.4597992	0.77736133	0.28551578
7	0.024	-1.6102395	0.032234457	-0.058529601	-0.96066512	0.10692614	0.16249717	-1.7249136	0.081164832	-0.071954938	-1.090802	0.080942173	0.16326609	-1.7139115	0.093127637	0.011813865	-1.0732818	0.11304188	0.081924624	NaN	NaN	NaN	-1.1224056	0.040833948	0.088130197	-1.5494034	0.40981374	-0.090268734	-1.2130387	0.45111216	0.16816419	-1.5558657	0.41075751	0.029234004	-1.2191778	0.42893579	0.040209371	-1.4439698	0.78023556	-0.15028757	-1.390145	0.77530898	0.1977909	-1.3548133	0.8177333	-0.11771707	-1.3157172	0.82455965	0.12668186	-1.5129086	0.90210541	0.039636244	-1.3728733	1.3086587	-0.16398478	-1.3717287	1.2870756	0.20013027	-1.4476186	1.3403196	0.018985499	-1.3419548	0.98743742	-0.24153548	NaN	NaN	NaN	-1.1138102	0.89231276	-0.19785748	-1.4568601	0.77574638	0.28609914
8	0.028	-1.6102641	0.032201899	-0.058568054	-0.94863517	0.11042473	0.16173352	-1.7245906	0.082032147	-0.072173337	-1.0784897	0.081654599	0.16348839	-1.7133775	0.093963862	0.011561118	-1.0618576	0.11381421	0.081921489	NaN	NaN	NaN	-1.1096565	0.040550472	0.088724367	-1.5457304	0.40920634	-0.090325389	-1.2053932	0.44997974	0.16806325	-1.5519301	0.41005173	0.029181898	-1.2125547	0.42711226	0.039465404	-1.4386716	0.77878697	-0.14981521	-1.3835168	0.77346684	0.1980413	-1.3489943	0.81618814	-0.11731228	-1.3090499	0.82295588	0.12677588	-1.5069351	0.9005446	0.040233951	-1.3667369	1.3069088	-0.16342299	-1.3659601	1.2854157	0.20076315	-1.4415605	1.3387907	0.019440829	-1.3340572	0.98576766	-0.24095908	NaN	NaN	NaN	-1.1054844	0.89252152	-0.19605508	-1.4537086	0.77416591	0.28672261
9	0.032	-1.6102598	0.032181297	-0.058623455	-0.93750455	0.1133286	0.16114892	-1.7242044	0.082944278	-0.072412243	-1.0669239	0.082228485	0.16352662	-1.7127967	0.09488099	0.011294895	-1.0510044	0.11442054	0.081766661	NaN	NaN	NaN	-1.0977193	0.040239081	0.089034893	-1.541905	0.40857063	-0.090362215	-1.1972562	0.4490216	0.16807699	-1.5478872	0.40930591	0.029152967	-1.2058119	0.42544125	0.038745058	-1.4332504	0.77734286	-0.14931003	-1.3768589	0.77164785	0.19829727	-1.3430766	0.81470359	-0.11688104	-1.302325	0.82140026	0.12687632	-1.500872	0.89899176	0.040894513	-1.3606013	1.3051988	-0.1628477	-1.3601451	1.2837796	0.20141717	-1.4354545	1.337296	0.0199601	-1.3261814	0.98411936	-0.24029561	NaN	NaN	NaN	-1.0972437	0.89266092	-0.19425394	-1.450403	0.77261837	0.28738903
10	0.036	-1.6102455	0.032168508	-0.058672992	-0.92714543	0.11562733	0.160611	-1.7235605	0.083915544	-0.072700704	-1.0560847	0.08262255	0.16337654	-1.7121275	0.095867888	0.010994991	-1.0406937	0.11485797	0.081457426	NaN	NaN	NaN	-1.0865061	0.039880305	0.089018246	-1.5379155	0.40789956	-0.090387377	-1.189122	0.44812185	0.16807274	-1.5436869	0.40853094	0.029132441	-1.1989486	0.42394662	0.038072713	-1.4277166	0.77588876	-0.14881054	-1.3701294	0.76988243	0.19857332	-1.3371247	0.81325683	-0.11661459	-1.2955606	0.81989813	0.12697261	-1.4945549	0.89744201	0.041783563	-1.3544505	1.3035242	-0.16225703	-1.3542534	1.282161	0.20208962	-1.4292819	1.3358464	0.020578424	-1.3183589	0.9825085	-0.23960432	NaN	NaN	NaN	-1.0890967	0.89273902	-0.19247142	-1.4469888	0.77110605	0.2880887
11	0.04	-1.610219	0.032158183	-0.058718163	-0.91746173	0.11730874	0.16004801	-1.7225608	0.084958132	-0.073046868	-1.0459506	0.082802392	0.16303714	-1.7115608	0.096883352	0.010717558	-1.0309113	0.11512452	0.080986065	NaN	NaN	NaN	-1.0759779	0.03944952	0.088699195	-1.5337523	0.40720052	-0.090409709	-1.1813218	0.44721421	0.16795608	-1.5392557	0.40774923	0.029095884	-1.1919778	0.42265351	0.037475601	-1.4220944	0.77440525	-0.14836685	-1.3633117	0.76819088	0.19887051	-1.3311733	0.81183729	-0.11655196	-1.2887662	0.81844826	0.12706241	-1.4879151	0.89589955	0.04301583	-1.3482663	1.3018833	-0.16164909	-1.3482891	1.2805673	0.20277697	-1.423047	1.3344394	0.021267715	-1.310607	0.98094305	-0.23889955	NaN	NaN	NaN	-1.0810496	0.8927599	-0.19072049	-1.4434424	0.7696428	0.28880521
12	0.044	-1.610181	0.032144097	-0.058767696	-0.90840343	0.11834614	0.15943207	-1.7213263	0.086080295	-0.073429262	-1.0365157	0.082735129	0.1625044	-1.711653	0.09781912	0.0106349	-1.0216975	0.11518645	0.080351653	NaN	NaN	NaN	-1.0662226	0.038927102	0.088181836	-1.529407	0.40648265	-0.090432713	-1.1737759	0.44632493	0.16774138	-1.5345688	0.40696119	0.029036144	-1.1849154	0.4215866	0.036970968	-1.4163938	0.77289424	-0.14798618	-1.3563861	0.76659722	0.19919366	-1.3252212	0.81044838	-0.11659384	-1.2819181	0.81704946	0.1271488	-1.4810842	0.89439953	0.044459538	-1.3420383	1.3002806	-0.16101946	-1.3422721	1.2790134	0.20348043	-1.4167753	1.3330664	0.021943383	-1.3029233	0.97942307	-0.23816306	NaN	NaN	NaN	-1.0731018	0.89272342	-0.18899837	-1.43964	0.76825451	0.28953357
